<svg width="1280" height="720" xmlns="http://www.w3.org/2000/svg" xmlns:xlink="http://www.w3.org/1999/xlink" overflow="hidden"><defs><filter id="fx0" x="-10%" y="-10%" width="120%" height="120%" filterUnits="userSpaceOnUse" primitiveUnits="userSpaceOnUse"><feComponentTransfer color-interpolation-filters="sRGB"><feFuncR type="discrete" tableValues="0.94902 0.94902"/><feFuncG type="discrete" tableValues="0.94902 0.94902"/><feFuncB type="discrete" tableValues="0.94902 0.94902"/><feFuncA type="linear" slope="0.4" intercept="0"/></feComponentTransfer><feGaussianBlur stdDeviation="4.44444 4.44444"/></filter><filter id="fx1" x="-10%" y="-10%" width="120%" height="120%" filterUnits="userSpaceOnUse" primitiveUnits="userSpaceOnUse"><feComponentTransfer color-interpolation-filters="sRGB"><feFuncR type="discrete" tableValues="0.65098 0.65098"/><feFuncG type="discrete" tableValues="0.65098 0.65098"/><feFuncB type="discrete" tableValues="0.65098 0.65098"/><feFuncA type="linear" slope="0.4" intercept="0"/></feComponentTransfer><feGaussianBlur stdDeviation="6.66667 6.66667"/></filter><filter id="fx2" x="-10%" y="-10%" width="120%" height="120%" filterUnits="userSpaceOnUse" primitiveUnits="userSpaceOnUse"><feComponentTransfer color-interpolation-filters="sRGB"><feFuncR type="discrete" tableValues="0.94902 0.94902"/><feFuncG type="discrete" tableValues="0.94902 0.94902"/><feFuncB type="discrete" tableValues="0.94902 0.94902"/><feFuncA type="linear" slope="0.4" intercept="0"/></feComponentTransfer><feGaussianBlur stdDeviation="4.44444 4.44444"/></filter><filter id="fx3" x="-10%" y="-10%" width="120%" height="120%" filterUnits="userSpaceOnUse" primitiveUnits="userSpaceOnUse"><feComponentTransfer color-interpolation-filters="sRGB"><feFuncR type="discrete" tableValues="0.65098 0.65098"/><feFuncG type="discrete" tableValues="0.65098 0.65098"/><feFuncB type="discrete" tableValues="0.65098 0.65098"/><feFuncA type="linear" slope="0.4" intercept="0"/></feComponentTransfer><feGaussianBlur stdDeviation="6.66667 6.66667"/></filter><filter id="fx4" x="-10%" y="-10%" width="120%" height="120%" filterUnits="userSpaceOnUse" primitiveUnits="userSpaceOnUse"><feComponentTransfer color-interpolation-filters="sRGB"><feFuncR type="discrete" tableValues="1 1"/><feFuncG type="discrete" tableValues="1 1"/><feFuncB type="discrete" tableValues="1 1"/><feFuncA type="linear" slope="0.4" intercept="0"/></feComponentTransfer><feGaussianBlur stdDeviation="4.44444 4.44444"/></filter><filter id="fx5" x="-10%" y="-10%" width="120%" height="120%" filterUnits="userSpaceOnUse" primitiveUnits="userSpaceOnUse"><feComponentTransfer color-interpolation-filters="sRGB"><feFuncR type="discrete" tableValues="0.65098 0.65098"/><feFuncG type="discrete" tableValues="0.65098 0.65098"/><feFuncB type="discrete" tableValues="0.65098 0.65098"/><feFuncA type="linear" slope="0.4" intercept="0"/></feComponentTransfer><feGaussianBlur stdDeviation="6.66667 6.66667"/></filter><filter id="fx6" x="-10%" y="-10%" width="120%" height="120%" filterUnits="userSpaceOnUse" primitiveUnits="userSpaceOnUse"><feComponentTransfer color-interpolation-filters="sRGB"><feFuncR type="discrete" tableValues="0.94902 0.94902"/><feFuncG type="discrete" tableValues="0.94902 0.94902"/><feFuncB type="discrete" tableValues="0.94902 0.94902"/><feFuncA type="linear" slope="0.4" intercept="0"/></feComponentTransfer><feGaussianBlur stdDeviation="4.44444 4.44444"/></filter><filter id="fx7" x="-10%" y="-10%" width="120%" height="120%" filterUnits="userSpaceOnUse" primitiveUnits="userSpaceOnUse"><feComponentTransfer color-interpolation-filters="sRGB"><feFuncR type="discrete" tableValues="0.65098 0.65098"/><feFuncG type="discrete" tableValues="0.65098 0.65098"/><feFuncB type="discrete" tableValues="0.65098 0.65098"/><feFuncA type="linear" slope="0.4" intercept="0"/></feComponentTransfer><feGaussianBlur stdDeviation="6.66667 6.66667"/></filter><filter id="fx8" x="-10%" y="-10%" width="120%" height="120%" filterUnits="userSpaceOnUse" primitiveUnits="userSpaceOnUse"><feComponentTransfer color-interpolation-filters="sRGB"><feFuncR type="discrete" tableValues="0.94902 0.94902"/><feFuncG type="discrete" tableValues="0.94902 0.94902"/><feFuncB type="discrete" tableValues="0.94902 0.94902"/><feFuncA type="linear" slope="0.4" intercept="0"/></feComponentTransfer><feGaussianBlur stdDeviation="4.44444 4.44444"/></filter><filter id="fx9" x="-10%" y="-10%" width="120%" height="120%" filterUnits="userSpaceOnUse" primitiveUnits="userSpaceOnUse"><feComponentTransfer color-interpolation-filters="sRGB"><feFuncR type="discrete" tableValues="0.65098 0.65098"/><feFuncG type="discrete" tableValues="0.65098 0.65098"/><feFuncB type="discrete" tableValues="0.65098 0.65098"/><feFuncA type="linear" slope="0.4" intercept="0"/></feComponentTransfer><feGaussianBlur stdDeviation="6.66667 6.66667"/></filter><filter id="fx10" x="-10%" y="-10%" width="120%" height="120%" filterUnits="userSpaceOnUse" primitiveUnits="userSpaceOnUse"><feComponentTransfer color-interpolation-filters="sRGB"><feFuncR type="discrete" tableValues="0.94902 0.94902"/><feFuncG type="discrete" tableValues="0.94902 0.94902"/><feFuncB type="discrete" tableValues="0.94902 0.94902"/><feFuncA type="linear" slope="0.4" intercept="0"/></feComponentTransfer><feGaussianBlur stdDeviation="4.44444 4.44444"/></filter><filter id="fx11" x="-10%" y="-10%" width="120%" height="120%" filterUnits="userSpaceOnUse" primitiveUnits="userSpaceOnUse"><feComponentTransfer color-interpolation-filters="sRGB"><feFuncR type="discrete" tableValues="0.65098 0.65098"/><feFuncG type="discrete" tableValues="0.65098 0.65098"/><feFuncB type="discrete" tableValues="0.65098 0.65098"/><feFuncA type="linear" slope="0.4" intercept="0"/></feComponentTransfer><feGaussianBlur stdDeviation="6.66667 6.66667"/></filter><filter id="fx12" x="-10%" y="-10%" width="120%" height="120%" filterUnits="userSpaceOnUse" primitiveUnits="userSpaceOnUse"><feComponentTransfer color-interpolation-filters="sRGB"><feFuncR type="discrete" tableValues="0.94902 0.94902"/><feFuncG type="discrete" tableValues="0.94902 0.94902"/><feFuncB type="discrete" tableValues="0.94902 0.94902"/><feFuncA type="linear" slope="0.4" intercept="0"/></feComponentTransfer><feGaussianBlur stdDeviation="4.44444 4.44444"/></filter><filter id="fx13" x="-10%" y="-10%" width="120%" height="120%" filterUnits="userSpaceOnUse" primitiveUnits="userSpaceOnUse"><feComponentTransfer color-interpolation-filters="sRGB"><feFuncR type="discrete" tableValues="0.65098 0.65098"/><feFuncG type="discrete" tableValues="0.65098 0.65098"/><feFuncB type="discrete" tableValues="0.65098 0.65098"/><feFuncA type="linear" slope="0.4" intercept="0"/></feComponentTransfer><feGaussianBlur stdDeviation="6.66667 6.66667"/></filter><filter id="fx14" x="-10%" y="-10%" width="120%" height="120%" filterUnits="userSpaceOnUse" primitiveUnits="userSpaceOnUse"><feComponentTransfer color-interpolation-filters="sRGB"><feFuncR type="discrete" tableValues="0.34902 0.34902"/><feFuncG type="discrete" tableValues="0.34902 0.34902"/><feFuncB type="discrete" tableValues="0.34902 0.34902"/><feFuncA type="linear" slope="0.4" intercept="0"/></feComponentTransfer><feGaussianBlur stdDeviation="4.44444 4.44444"/></filter><filter id="fx15" x="-10%" y="-10%" width="120%" height="120%" filterUnits="userSpaceOnUse" primitiveUnits="userSpaceOnUse"><feComponentTransfer color-interpolation-filters="sRGB"><feFuncR type="discrete" tableValues="0.34902 0.34902"/><feFuncG type="discrete" tableValues="0.34902 0.34902"/><feFuncB type="discrete" tableValues="0.34902 0.34902"/><feFuncA type="linear" slope="0.4" intercept="0"/></feComponentTransfer><feGaussianBlur stdDeviation="4.44444 4.44444"/></filter><clipPath id="clip16"><rect x="0" y="0" width="1280" height="720"/></clipPath><linearGradient x1="374.5" y1="165" x2="374.5" y2="297" gradientUnits="userSpaceOnUse" spreadMethod="reflect" id="fill17"><stop offset="0" stop-color="#EDEEF3"/><stop offset="0.0588235" stop-color="#EEEFF4"/><stop offset="0.117647" stop-color="#F0F1F5"/><stop offset="0.176471" stop-color="#F2F3F6"/><stop offset="0.235294" stop-color="#F4F4F7"/><stop offset="0.294118" stop-color="#F5F6F8"/><stop offset="0.352941" stop-color="#F7F7F9"/><stop offset="0.411765" stop-color="#F8F8FA"/><stop offset="0.470588" stop-color="#F9F9FB"/><stop offset="0.529412" stop-color="#FAFAFC"/><stop offset="0.588235" stop-color="#FBFBFC"/><stop offset="0.647059" stop-color="#FCFCFD"/><stop offset="0.705882" stop-color="#FDFDFD"/><stop offset="0.764706" stop-color="#FDFDFE"/><stop offset="0.823529" stop-color="#FEFEFE"/><stop offset="0.882353" stop-color="#FEFEFE"/><stop offset="0.941176" stop-color="#FEFEFE"/><stop offset="1" stop-color="#FFFFFF"/></linearGradient><linearGradient x1="755.5" y1="320" x2="755.5" y2="683" gradientUnits="userSpaceOnUse" spreadMethod="reflect" id="fill18"><stop offset="0" stop-color="#EDEEF3"/><stop offset="0.0588235" stop-color="#EEEFF4"/><stop offset="0.117647" stop-color="#F0F1F5"/><stop offset="0.176471" stop-color="#F2F3F6"/><stop offset="0.235294" stop-color="#F4F4F7"/><stop offset="0.294118" stop-color="#F5F6F8"/><stop offset="0.352941" stop-color="#F7F7F9"/><stop offset="0.411765" stop-color="#F8F8FA"/><stop offset="0.470588" stop-color="#F9F9FB"/><stop offset="0.529412" stop-color="#FAFAFC"/><stop offset="0.588235" stop-color="#FBFBFC"/><stop offset="0.647059" stop-color="#FCFCFD"/><stop offset="0.705882" stop-color="#FDFDFD"/><stop offset="0.764706" stop-color="#FDFDFE"/><stop offset="0.823529" stop-color="#FEFEFE"/><stop offset="0.882353" stop-color="#FEFEFE"/><stop offset="0.941176" stop-color="#FEFEFE"/><stop offset="1" stop-color="#FFFFFF"/></linearGradient><linearGradient x1="126.5" y1="11" x2="126.5" y2="711" gradientUnits="userSpaceOnUse" spreadMethod="reflect" id="fill19"><stop offset="0" stop-color="#C9B194"/><stop offset="0.8" stop-color="#705F44"/><stop offset="1" stop-color="#705F44"/></linearGradient><linearGradient x1="126.5" y1="11" x2="126.5" y2="711" gradientUnits="userSpaceOnUse" spreadMethod="reflect" id="fill20"><stop offset="0" stop-color="#C9B194"/><stop offset="0.8" stop-color="#705F44"/><stop offset="1" stop-color="#705F44"/></linearGradient><linearGradient x1="590.5" y1="86" x2="590.5" y2="137" gradientUnits="userSpaceOnUse" spreadMethod="reflect" id="fill21"><stop offset="0" stop-color="#EDEEF3"/><stop offset="0.0588235" stop-color="#EEEFF4"/><stop offset="0.117647" stop-color="#F0F1F5"/><stop offset="0.176471" stop-color="#F2F3F6"/><stop offset="0.235294" stop-color="#F4F4F7"/><stop offset="0.294118" stop-color="#F5F6F8"/><stop offset="0.352941" stop-color="#F7F7F9"/><stop offset="0.411765" stop-color="#F8F8FA"/><stop offset="0.470588" stop-color="#F9F9FB"/><stop offset="0.529412" stop-color="#FAFAFC"/><stop offset="0.588235" stop-color="#FBFBFC"/><stop offset="0.647059" stop-color="#FCFCFD"/><stop offset="0.705882" stop-color="#FDFDFD"/><stop offset="0.764706" stop-color="#FDFDFE"/><stop offset="0.823529" stop-color="#FEFEFE"/><stop offset="0.882353" stop-color="#FEFEFE"/><stop offset="0.941176" stop-color="#FEFEFE"/><stop offset="1" stop-color="#FFFFFF"/></linearGradient><linearGradient x1="1136.5" y1="165" x2="1136.5" y2="297" gradientUnits="userSpaceOnUse" spreadMethod="reflect" id="fill22"><stop offset="0" stop-color="#EDEEF3"/><stop offset="0.0588235" stop-color="#EEEFF4"/><stop offset="0.117647" stop-color="#F0F1F5"/><stop offset="0.176471" stop-color="#F2F3F6"/><stop offset="0.235294" stop-color="#F4F4F7"/><stop offset="0.294118" stop-color="#F5F6F8"/><stop offset="0.352941" stop-color="#F7F7F9"/><stop offset="0.411765" stop-color="#F8F8FA"/><stop offset="0.470588" stop-color="#F9F9FB"/><stop offset="0.529412" stop-color="#FAFAFC"/><stop offset="0.588235" stop-color="#FBFBFC"/><stop offset="0.647059" stop-color="#FCFCFD"/><stop offset="0.705882" stop-color="#FDFDFD"/><stop offset="0.764706" stop-color="#FDFDFE"/><stop offset="0.823529" stop-color="#FEFEFE"/><stop offset="0.882353" stop-color="#FEFEFE"/><stop offset="0.941176" stop-color="#FEFEFE"/><stop offset="1" stop-color="#FFFFFF"/></linearGradient><linearGradient x1="628.5" y1="165" x2="628.5" y2="297" gradientUnits="userSpaceOnUse" spreadMethod="reflect" id="fill23"><stop offset="0" stop-color="#EDEEF3"/><stop offset="0.0588235" stop-color="#EEEFF4"/><stop offset="0.117647" stop-color="#F0F1F5"/><stop offset="0.176471" stop-color="#F2F3F6"/><stop offset="0.235294" stop-color="#F4F4F7"/><stop offset="0.294118" stop-color="#F5F6F8"/><stop offset="0.352941" stop-color="#F7F7F9"/><stop offset="0.411765" stop-color="#F8F8FA"/><stop offset="0.470588" stop-color="#F9F9FB"/><stop offset="0.529412" stop-color="#FAFAFC"/><stop offset="0.588235" stop-color="#FBFBFC"/><stop offset="0.647059" stop-color="#FCFCFD"/><stop offset="0.705882" stop-color="#FDFDFD"/><stop offset="0.764706" stop-color="#FDFDFE"/><stop offset="0.823529" stop-color="#FEFEFE"/><stop offset="0.882353" stop-color="#FEFEFE"/><stop offset="0.941176" stop-color="#FEFEFE"/><stop offset="1" stop-color="#FFFFFF"/></linearGradient><linearGradient x1="882.5" y1="165" x2="882.5" y2="297" gradientUnits="userSpaceOnUse" spreadMethod="reflect" id="fill24"><stop offset="0" stop-color="#EDEEF3"/><stop offset="0.0588235" stop-color="#EEEFF4"/><stop offset="0.117647" stop-color="#F0F1F5"/><stop offset="0.176471" stop-color="#F2F3F6"/><stop offset="0.235294" stop-color="#F4F4F7"/><stop offset="0.294118" stop-color="#F5F6F8"/><stop offset="0.352941" stop-color="#F7F7F9"/><stop offset="0.411765" stop-color="#F8F8FA"/><stop offset="0.470588" stop-color="#F9F9FB"/><stop offset="0.529412" stop-color="#FAFAFC"/><stop offset="0.588235" stop-color="#FBFBFC"/><stop offset="0.647059" stop-color="#FCFCFD"/><stop offset="0.705882" stop-color="#FDFDFD"/><stop offset="0.764706" stop-color="#FDFDFE"/><stop offset="0.823529" stop-color="#FEFEFE"/><stop offset="0.882353" stop-color="#FEFEFE"/><stop offset="0.941176" stop-color="#FEFEFE"/><stop offset="1" stop-color="#FFFFFF"/></linearGradient></defs><g clip-path="url(#clip16)"><rect x="0" y="0" width="1280" height="720" fill="#FFFFFF"/><path d="M147 50.3747C147 33.0469 161.047 19 178.375 19L1231.63 19C1248.95 19 1263 33.0469 1263 50.3747L1263 667.625C1263 684.953 1248.95 699 1231.63 699L178.375 699C161.047 699 147 684.953 147 667.625Z" fill="#D9D9D9" fill-rule="evenodd"/><g filter="url(#fx0)" transform="translate(239 141)"><g><path d="M14.5719 36.5724C14.5719 24.4219 24.4219 14.5719 36.5724 14.5719L215.571 14.5719C227.722 14.5719 237.572 24.4219 237.572 36.5724L237.572 124.571C237.572 136.722 227.722 146.572 215.571 146.572L36.5724 146.572C24.4219 146.572 14.5719 136.722 14.5719 124.571Z" fill="#D9D9D9" fill-rule="evenodd"/></g></g><path d="M263 187.001C263 174.85 272.85 165 285.001 165L463.999 165C476.15 165 486 174.85 486 187.001L486 274.999C486 287.15 476.15 297 463.999 297L285.001 297C272.85 297 263 287.15 263 274.999Z" fill="#D9D9D9" fill-rule="evenodd"/><g filter="url(#fx1)" transform="translate(256 158)"><g><path d="M21.1422 43.1427C21.1422 30.9921 30.9921 21.1421 43.1427 21.1421L222.142 21.1421C234.292 21.1421 244.142 30.9921 244.142 43.1427L244.142 131.142C244.142 143.292 234.292 153.142 222.142 153.142L43.1427 153.142C30.9921 153.142 21.1422 143.292 21.1422 131.142Z" fill="#FF0000" fill-rule="evenodd"/></g></g><path d="M263 187.001C263 174.85 272.85 165 285.001 165L463.999 165C476.15 165 486 174.85 486 187.001L486 274.999C486 287.15 476.15 297 463.999 297L285.001 297C272.85 297 263 287.15 263 274.999Z" fill="url(#fill17)" fill-rule="evenodd"/><g filter="url(#fx2)" transform="translate(239 296)"><g><path d="M14.5719 75.0735C14.5719 41.6594 41.6593 14.5719 75.0734 14.5719L939.07 14.5719C972.484 14.5719 999.572 41.6594 999.572 75.0735L999.572 317.07C999.572 350.484 972.484 377.572 939.07 377.572L75.0734 377.572C41.6593 377.572 14.5719 350.484 14.5719 317.07Z" fill="#D9D9D9" fill-rule="evenodd"/></g></g><path d="M263 380.502C263 347.087 290.087 320 323.501 320L1187.5 320C1220.91 320 1248 347.087 1248 380.502L1248 622.498C1248 655.912 1220.91 683 1187.5 683L323.501 683C290.087 683 263 655.912 263 622.498Z" fill="#D9D9D9" fill-rule="evenodd"/><g filter="url(#fx3)" transform="translate(256 313)"><g><path d="M21.1422 81.6438C21.1422 48.2296 48.2296 21.1422 81.6436 21.1422L945.641 21.1422C979.055 21.1422 1006.14 48.2296 1006.14 81.6438L1006.14 323.641C1006.14 357.055 979.055 384.142 945.641 384.142L81.6436 384.142C48.2296 384.142 21.1422 357.055 21.1422 323.641Z" fill="#FF0000" fill-rule="evenodd"/></g></g><path d="M263 380.502C263 347.087 290.087 320 323.501 320L1187.5 320C1220.91 320 1248 347.087 1248 380.502L1248 622.498C1248 655.912 1220.91 683 1187.5 683L323.501 683C290.087 683 263 655.912 263 622.498Z" fill="url(#fill18)" fill-rule="evenodd"/><g filter="url(#fx4)" transform="translate(-7 -13)"><g><path d="M14.5719 51.0723C14.5719 30.9137 30.9137 14.5719 51.0724 14.5719L197.071 14.5719C217.23 14.5719 233.572 30.9137 233.572 51.0723L233.572 678.071C233.572 698.23 217.23 714.572 197.071 714.572L51.0724 714.572C30.9137 714.572 14.5719 698.23 14.5719 678.071Z" fill="#FF0000" fill-rule="evenodd"/></g></g><path d="M17 47.5004C17 27.3418 33.3418 11 53.5005 11L199.499 11C219.658 11 236 27.3418 236 47.5004L236 674.5C236 694.658 219.658 711 199.499 711L53.5005 711C33.3418 711 17 694.658 17 674.5Z" fill="url(#fill19)" fill-rule="evenodd"/><g filter="url(#fx5)" transform="translate(10 4)"><g><path d="M21.1421 57.6426C21.1421 37.4839 37.484 21.1421 57.6426 21.1421L203.642 21.1421C223.8 21.1421 240.142 37.4839 240.142 57.6426L240.142 684.642C240.142 704.8 223.8 721.142 203.642 721.142L57.6426 721.142C37.484 721.142 21.1421 704.8 21.1421 684.642Z" fill="#FF0000" fill-rule="evenodd"/></g></g><path d="M17 47.5004C17 27.3418 33.3418 11 53.5005 11L199.499 11C219.658 11 236 27.3418 236 47.5004L236 674.5C236 694.658 219.658 711 199.499 711L53.5005 711C33.3418 711 17 694.658 17 674.5Z" fill="url(#fill20)" fill-rule="evenodd"/><g filter="url(#fx6)" transform="translate(239 67)"><g><path d="M14.5719 23.0718C14.5719 18.3774 18.3774 14.5719 23.0717 14.5719L661.072 14.5719C665.766 14.5719 669.572 18.3774 669.572 23.0718L669.572 57.072C669.572 61.7664 665.766 65.5719 661.072 65.5719L23.0717 65.5719C18.3774 65.5719 14.5719 61.7664 14.5719 57.072Z" fill="#D9D9D9" fill-rule="evenodd"/></g></g><path d="M263 99.4999C263 94.8055 266.806 91 271.5 91L909.5 91C914.195 91 918 94.8055 918 99.4999L918 133.5C918 138.194 914.195 142 909.5 142L271.5 142C266.806 142 263 138.194 263 133.5Z" fill="#D9D9D9" fill-rule="evenodd"/><g filter="url(#fx7)" transform="translate(256 79)"><g><path d="M21.1422 29.642C21.1422 24.9477 24.9476 21.1421 29.642 21.1421L667.642 21.1421C672.337 21.1421 676.142 24.9477 676.142 29.642L676.142 63.6423C676.142 68.3366 672.337 72.1421 667.642 72.1421L29.642 72.1421C24.9476 72.1421 21.1422 68.3366 21.1422 63.6423Z" fill="#FF0000" fill-rule="evenodd"/></g></g><path d="M263 94.4999C263 89.8055 266.806 86 271.5 86L909.5 86C914.195 86 918 89.8055 918 94.4999L918 128.5C918 133.194 914.195 137 909.5 137L271.5 137C266.806 137 263 133.194 263 128.5Z" fill="url(#fill21)" fill-rule="evenodd"/><g filter="url(#fx8)" transform="translate(1001 141)"><g><path d="M14.5719 36.5724C14.5719 24.4219 24.4219 14.5719 36.5724 14.5719L215.571 14.5719C227.722 14.5719 237.572 24.4219 237.572 36.5724L237.572 124.571C237.572 136.722 227.722 146.572 215.571 146.572L36.5724 146.572C24.4219 146.572 14.5719 136.722 14.5719 124.571Z" fill="#D9D9D9" fill-rule="evenodd"/></g></g><path d="M1025 187.001C1025 174.85 1034.85 165 1047 165L1226 165C1238.15 165 1248 174.85 1248 187.001L1248 274.999C1248 287.15 1238.15 297 1226 297L1047 297C1034.85 297 1025 287.15 1025 274.999Z" fill="#D9D9D9" fill-rule="evenodd"/><g filter="url(#fx9)" transform="translate(1018 158)"><g><path d="M21.1421 43.1427C21.1421 30.9921 30.9921 21.1421 43.1426 21.1421L222.142 21.1421C234.292 21.1421 244.142 30.9921 244.142 43.1427L244.142 131.142C244.142 143.292 234.292 153.142 222.142 153.142L43.1426 153.142C30.9921 153.142 21.1421 143.292 21.1421 131.142Z" fill="#FF0000" fill-rule="evenodd"/></g></g><path d="M1025 187.001C1025 174.85 1034.85 165 1047 165L1226 165C1238.15 165 1248 174.85 1248 187.001L1248 274.999C1248 287.15 1238.15 297 1226 297L1047 297C1034.85 297 1025 287.15 1025 274.999Z" fill="url(#fill22)" fill-rule="evenodd"/><g filter="url(#fx10)" transform="translate(493 141)"><g><path d="M14.5719 36.5724C14.5719 24.4219 24.4219 14.5719 36.5724 14.5719L215.571 14.5719C227.722 14.5719 237.572 24.4219 237.572 36.5724L237.572 124.571C237.572 136.722 227.722 146.572 215.571 146.572L36.5724 146.572C24.4219 146.572 14.5719 136.722 14.5719 124.571Z" fill="#D9D9D9" fill-rule="evenodd"/></g></g><path d="M517 187.001C517 174.85 526.85 165 539.001 165L718 165C730.15 165 740 174.85 740 187.001L740 274.999C740 287.15 730.15 297 718 297L539.001 297C526.85 297 517 287.15 517 274.999Z" fill="#D9D9D9" fill-rule="evenodd"/><g filter="url(#fx11)" transform="translate(510 158)"><g><path d="M21.1422 43.1427C21.1422 30.9921 30.9921 21.1421 43.1427 21.1421L222.142 21.1421C234.292 21.1421 244.142 30.9921 244.142 43.1427L244.142 131.142C244.142 143.292 234.292 153.142 222.142 153.142L43.1427 153.142C30.9921 153.142 21.1422 143.292 21.1422 131.142Z" fill="#FF0000" fill-rule="evenodd"/></g></g><path d="M517 187.001C517 174.85 526.85 165 539.001 165L718 165C730.15 165 740 174.85 740 187.001L740 274.999C740 287.15 730.15 297 718 297L539.001 297C526.85 297 517 287.15 517 274.999Z" fill="url(#fill23)" fill-rule="evenodd"/><g filter="url(#fx12)" transform="translate(747 141)"><g><path d="M14.5719 36.5724C14.5719 24.4219 24.4219 14.5719 36.5724 14.5719L215.571 14.5719C227.722 14.5719 237.572 24.4219 237.572 36.5724L237.572 124.571C237.572 136.722 227.722 146.572 215.571 146.572L36.5724 146.572C24.4219 146.572 14.5719 136.722 14.5719 124.571Z" fill="#D9D9D9" fill-rule="evenodd"/></g></g><path d="M771 187.001C771 174.85 780.85 165 793.001 165L972 165C984.15 165 994 174.85 994 187.001L994 274.999C994 287.15 984.15 297 972 297L793.001 297C780.85 297 771 287.15 771 274.999Z" fill="#D9D9D9" fill-rule="evenodd"/><g filter="url(#fx13)" transform="translate(764 158)"><g><path d="M21.1422 43.1427C21.1422 30.9921 30.9921 21.1421 43.1427 21.1421L222.142 21.1421C234.292 21.1421 244.142 30.9921 244.142 43.1427L244.142 131.142C244.142 143.292 234.292 153.142 222.142 153.142L43.1427 153.142C30.9921 153.142 21.1422 143.292 21.1422 131.142Z" fill="#FF0000" fill-rule="evenodd"/></g></g><path d="M771 187.001C771 174.85 780.85 165 793.001 165L972 165C984.15 165 994 174.85 994 187.001L994 274.999C994 287.15 984.15 297 972 297L793.001 297C780.85 297 771 287.15 771 274.999Z" fill="url(#fill24)" fill-rule="evenodd"/><g filter="url(#fx14)" transform="translate(-2 54)"><g><path d="M15.4281 139.428C15.4281 70.9448 70.7209 15.4281 138.928 15.4281 207.135 15.4281 262.428 70.9448 262.428 139.428 262.428 207.911 207.135 263.428 138.928 263.428 70.7209 263.428 15.4281 207.911 15.4281 139.428Z" fill="#803D3B" fill-rule="evenodd"/></g></g><path d="M4 184C4 115.517 59.2928 60 127.5 60 195.707 60 251 115.517 251 184 251 252.483 195.707 308 127.5 308 59.2928 308 4 252.483 4 184Z" fill="#803D3B" fill-rule="evenodd"/><g filter="url(#fx15)" transform="translate(-14 36)"><g><path d="M8.57191 138.572C8.57191 70.0886 63.8647 14.5719 132.072 14.5719 200.279 14.5719 255.572 70.0886 255.572 138.572 255.572 207.055 200.279 262.572 132.072 262.572 63.8647 262.572 8.57191 207.055 8.57191 138.572Z" fill="#803D3B" fill-rule="evenodd"/></g></g><path d="M4 184C4 115.517 59.2928 60 127.5 60 195.707 60 251 115.517 251 184 251 252.483 195.707 308 127.5 308 59.2928 308 4 252.483 4 184Z" fill="#803D3B" fill-rule="evenodd"/></g></svg>